# xmcd
# 
# Track frame offsets:
#     150
#     15175
#     29704
#     42876
#     58362
#     69455
#     80477
#     97524
#     110314
#     126075
#     138330
#     153800
#     167601
#     181456
#     194240
#     208043
# 
# Disc length: 2976
# 
# Revision: 4
# Processed by: cddbd v1.5.2PL0 Copyright (c) Steve Scherf et al.
# Submitted via: fre:ac v1.0.31
# 
DISCID=d50b9e10
DTITLE=Shakira - Sale El Sol
DYEAR=2010
DGENRE=Latin
TTITLE0=Sale El Sol
TTITLE1=Loca (feat. Dizzee Rascal)
TTITLE2=Antes De Las Seis
TTITLE3=Gordita (feat. Residente Calleiz)
TTITLE4=Addicted To You
TTITLE5=Lo Que Más
TTITLE6=Mariposas
TTITLE7=Rabiosa (feat. Pitbull)
TTITLE8=Devoción
TTITLE9=Islands
TTITLE10=Tu Boca
TTITLE11=Waka Waka (This Time For Africa) [K-Mix]
TTITLE12=Loca (feat. El Cata)
TTITLE13=Rabiosa (feat. El Cata)
TTITLE14=Waka Waka (Esto Es África) [K-Mix]
TTITLE15=Waka Waka (This Time For Africa) (The Official 2010 FIFA World Cup Song) (feat. Freshlyground)
EXTD=
EXTT0=
EXTT1=
EXTT2=
EXTT3=
EXTT4=
EXTT5=
EXTT6=
EXTT7=
EXTT8=
EXTT9=
EXTT10=
EXTT11=
EXTT12=
EXTT13=
EXTT14=
EXTT15=
PLAYORDER=
